<svg id="Layer_1" data-name="Layer 1" xmlns="http://www.w3.org/2000/svg" viewBox="0 0 4149 1536"><defs><style>.cls-1,.cls-3{fill:#009fff;stroke:#000;}.cls-1,.cls-2,.cls-3{stroke-miterlimit:10;}.cls-1{stroke-width:3px;}.cls-2,.cls-4,.cls-5{fill:#fff;}.cls-2{stroke:#009fff;stroke-width:6px;}.cls-5{font-size:300px;font-family:TimesNewRomanPS-BoldMT, Times New Roman;font-weight:700;}.cls-6{letter-spacing:-0.02em;}.cls-7{letter-spacing:-0.04em;}</style></defs><title>BWMS-SVG-Dark Logo</title><path class="cls-1" d="M1126.71,761.91H973.52c-6.25-126.3-74.17-236.64-174.19-301.49L876,327.64a19.09,19.09,0,0,0-33.06-19.09L766.3,441.26a381.35,381.35,0,0,0-348.2,0L341.48,308.55a19.09,19.09,0,0,0-33.06,19.09l76.66,132.78C285,525.27,217.13,635.61,210.88,761.91H57.69a19.09,19.09,0,1,0,0,38.18h153.2c6.25,126.3,74.17,236.64,174.19,301.49l-76.66,132.78a19.09,19.09,0,1,0,33.07,19.09l76.62-132.71a381.35,381.35,0,0,0,348.2,0l76.62,132.71A19.09,19.09,0,0,0,876,1234.35l-76.66-132.78c100-64.85,167.94-175.19,174.19-301.49h153.2a19.09,19.09,0,0,0,0-38.18ZM592.2,1124.61c-189.47,0-343.62-154.15-343.62-343.62S402.73,437.38,592.2,437.38,935.82,591.52,935.82,781,781.67,1124.61,592.2,1124.61Z"/><path class="cls-2" d="M572,705.24c-221.13,75.24-275,92.7-296.22,47.13-17.16-30.48,39.6-124.46,132.08-137.83C476.2,604.67,543.56,641.78,572,705.24Z"/><path class="cls-2" d="M515.64,802.51c74.54,221.37,68.63,283.83,46.19,296.37-30.53,17.06-124.34-40-137.41-132.52C414.76,898,452.09,830.76,515.64,802.51Z"/><path class="cls-2" d="M665.53,758.72c-75.93-220.89-70.42-283.39-48.06-296.07,30.42-17.25,124.59,39.21,138.24,131.65C765.8,662.61,728.9,730.08,665.53,758.72Z"/><path class="cls-2" d="M614,855.35c220-78.6,282.52-73.84,295.47-51.64,17.62,30.21-37.7,125.05-130,139.83C711.33,954.45,643.42,918.37,614,855.35Z"/><circle class="cls-3" cx="590.93" cy="780.79" r="78" transform="translate(-190.21 190.32) rotate(-15.79)"/><circle class="cls-4" cx="591" cy="781" r="43.5"/><text class="cls-5" transform="translate(1161.84 709.9)">BIG<tspan class="cls-6" x="550.2" y="0"> </tspan><tspan x="619.78" y="0">WHITE</tspan><tspan x="0" y="360">MARINE SE</tspan><tspan class="cls-7" x="1691.89" y="360">R</tspan><tspan x="1898" y="360">VICES</tspan></text></svg>